<?xml version="1.0" encoding="UTF-8"?>
<!DOCTYPE svg PUBLIC "-//W3C//DTD SVG 1.1//EN" "http://www.w3.org/Graphics/SVG/1.1/DTD/svg11.dtd">
<svg version="1.2" width="64.58mm" height="42.36mm" viewBox="2533 7931 6458 4236" preserveAspectRatio="xMidYMid" fill-rule="evenodd" stroke-width="28.222" stroke-linejoin="round" xmlns="http://www.w3.org/2000/svg" xmlns:ooo="http://xml.openoffice.org/svg/export" xmlns:xlink="http://www.w3.org/1999/xlink" xmlns:presentation="http://sun.com/xmlns/staroffice/presentation" xmlns:smil="http://www.w3.org/2001/SMIL20/" xmlns:anim="urn:oasis:names:tc:opendocument:xmlns:animation:1.0" xmlns:svg="urn:oasis:names:tc:opendocument:xmlns:svg-compatible:1.0" xml:space="preserve">
 <defs class="EmbeddedBulletChars">
  <g id="bullet-char-template-57356" transform="scale(0.00048828125,-0.00048828125)">
   <path d="M 580,1141 L 1163,571 580,0 -4,571 580,1141 Z"/>
  </g>
  <g id="bullet-char-template-57354" transform="scale(0.00048828125,-0.00048828125)">
   <path d="M 8,1128 L 1137,1128 1137,0 8,0 8,1128 Z"/>
  </g>
  <g id="bullet-char-template-10146" transform="scale(0.00048828125,-0.00048828125)">
   <path d="M 174,0 L 602,739 174,1481 1456,739 174,0 Z M 1358,739 L 309,1346 659,739 1358,739 Z"/>
  </g>
  <g id="bullet-char-template-10132" transform="scale(0.00048828125,-0.00048828125)">
   <path d="M 2015,739 L 1276,0 717,0 1260,543 174,543 174,936 1260,936 717,1481 1274,1481 2015,739 Z"/>
  </g>
  <g id="bullet-char-template-10007" transform="scale(0.00048828125,-0.00048828125)">
   <path d="M 0,-2 C -7,14 -16,27 -25,37 L 356,567 C 262,823 215,952 215,954 215,979 228,992 255,992 264,992 276,990 289,987 310,991 331,999 354,1012 L 381,999 492,748 772,1049 836,1024 860,1049 C 881,1039 901,1025 922,1006 886,937 835,863 770,784 769,783 710,716 594,584 L 774,223 C 774,196 753,168 711,139 L 727,119 C 717,90 699,76 672,76 641,76 570,178 457,381 L 164,-76 C 142,-110 111,-127 72,-127 30,-127 9,-110 8,-76 1,-67 -2,-52 -2,-32 -2,-23 -1,-13 0,-2 Z"/>
  </g>
  <g id="bullet-char-template-10004" transform="scale(0.00048828125,-0.00048828125)">
   <path d="M 285,-33 C 182,-33 111,30 74,156 52,228 41,333 41,471 41,549 55,616 82,672 116,743 169,778 240,778 293,778 328,747 346,684 L 369,508 C 377,444 397,411 428,410 L 1163,1116 C 1174,1127 1196,1133 1229,1133 1271,1133 1292,1118 1292,1087 L 1292,965 C 1292,929 1282,901 1262,881 L 442,47 C 390,-6 338,-33 285,-33 Z"/>
  </g>
  <g id="bullet-char-template-9679" transform="scale(0.00048828125,-0.00048828125)">
   <path d="M 813,0 C 632,0 489,54 383,161 276,268 223,411 223,592 223,773 276,916 383,1023 489,1130 632,1184 813,1184 992,1184 1136,1130 1245,1023 1353,916 1407,772 1407,592 1407,412 1353,268 1245,161 1136,54 992,0 813,0 Z"/>
  </g>
  <g id="bullet-char-template-8226" transform="scale(0.00048828125,-0.00048828125)">
   <path d="M 346,457 C 273,457 209,483 155,535 101,586 74,649 74,723 74,796 101,859 155,911 209,963 273,989 346,989 419,989 480,963 531,910 582,859 608,796 608,723 608,648 583,586 532,535 482,483 420,457 346,457 Z"/>
  </g>
  <g id="bullet-char-template-8211" transform="scale(0.00048828125,-0.00048828125)">
   <path d="M -4,459 L 1135,459 1135,606 -4,606 -4,459 Z"/>
  </g>
  <g id="bullet-char-template-61548" transform="scale(0.00048828125,-0.00048828125)">
   <path d="M 173,740 C 173,903 231,1043 346,1159 462,1274 601,1332 765,1332 928,1332 1067,1274 1183,1159 1299,1043 1357,903 1357,740 1357,577 1299,437 1183,322 1067,206 928,148 765,148 601,148 462,206 346,322 231,437 173,577 173,740 Z"/>
  </g>
 </defs>
 <g class="Page">
  <g class="com.sun.star.drawing.CustomShape">
   <g id="id3">
    <rect class="BoundingBox" stroke="none" fill="none" x="2533" y="7931" width="743" height="743"/>
    <path fill="rgb(249,89,143)" stroke="none" d="M 3222,8302 C 3222,8358 3207,8413 3179,8461 3151,8509 3111,8549 3063,8577 3015,8605 2960,8620 2904,8620 2848,8620 2793,8605 2745,8577 2697,8549 2657,8509 2629,8461 2601,8413 2586,8358 2586,8302 2586,8246 2601,8191 2629,8143 2657,8095 2697,8055 2745,8027 2793,7999 2848,7984 2904,7984 2960,7984 3015,7999 3063,8027 3111,8055 3151,8095 3179,8143 3207,8191 3222,8246 3222,8302 L 3222,8302 Z"/>
    <path fill="none" stroke="rgb(167,7,75)" stroke-width="106" stroke-linejoin="round" d="M 3222,8302 C 3222,8358 3207,8413 3179,8461 3151,8509 3111,8549 3063,8577 3015,8605 2960,8620 2904,8620 2848,8620 2793,8605 2745,8577 2697,8549 2657,8509 2629,8461 2601,8413 2586,8358 2586,8302 2586,8246 2601,8191 2629,8143 2657,8095 2697,8055 2745,8027 2793,7999 2848,7984 2904,7984 2960,7984 3015,7999 3063,8027 3111,8055 3151,8095 3179,8143 3207,8191 3222,8246 3222,8302 Z"/>
   </g>
  </g>
  <g class="com.sun.star.drawing.CustomShape">
   <g id="id4">
    <rect class="BoundingBox" stroke="none" fill="none" x="6026" y="11423" width="743" height="744"/>
    <path fill="rgb(129,212,26)" stroke="none" d="M 6715,11794 C 6715,11850 6700,11905 6672,11953 6644,12001 6604,12041 6556,12069 6508,12097 6453,12112 6397,12112 6341,12112 6286,12097 6238,12069 6190,12041 6150,12001 6122,11953 6094,11905 6079,11850 6079,11794 6079,11738 6094,11683 6122,11635 6150,11587 6190,11547 6238,11519 6286,11491 6341,11476 6397,11476 6453,11476 6508,11491 6556,11519 6604,11547 6644,11587 6672,11635 6700,11683 6715,11738 6715,11794 L 6715,11794 Z"/>
    <path fill="none" stroke="rgb(0,169,51)" stroke-width="106" stroke-linejoin="round" d="M 6715,11794 C 6715,11850 6700,11905 6672,11953 6644,12001 6604,12041 6556,12069 6508,12097 6453,12112 6397,12112 6341,12112 6286,12097 6238,12069 6190,12041 6150,12001 6122,11953 6094,11905 6079,11850 6079,11794 6079,11738 6094,11683 6122,11635 6150,11587 6190,11547 6238,11519 6286,11491 6341,11476 6397,11476 6453,11476 6508,11491 6556,11519 6604,11547 6644,11587 6672,11635 6700,11683 6715,11738 6715,11794 Z"/>
   </g>
  </g>
  <g class="com.sun.star.drawing.LineShape">
   <g id="id5">
    <rect class="BoundingBox" stroke="none" fill="none" x="5339" y="8514" width="1165" height="3070"/>
    <path fill="none" stroke="rgb(0,169,51)" stroke-width="212" stroke-linejoin="round" d="M 5445,8620 L 6397,11477"/>
   </g>
  </g>
  <g class="com.sun.star.drawing.CustomShape">
   <g id="id6">
    <rect class="BoundingBox" stroke="none" fill="none" x="7296" y="7931" width="743" height="743"/>
    <path fill="rgb(129,212,26)" stroke="none" d="M 7985,8302 C 7985,8358 7970,8413 7942,8461 7914,8509 7874,8549 7826,8577 7778,8605 7723,8620 7667,8620 7611,8620 7556,8605 7508,8577 7460,8549 7420,8509 7392,8461 7364,8413 7349,8358 7349,8302 7349,8246 7364,8191 7392,8143 7420,8095 7460,8055 7508,8027 7556,7999 7611,7984 7667,7984 7723,7984 7778,7999 7826,8027 7874,8055 7914,8095 7942,8143 7970,8191 7985,8246 7985,8302 L 7985,8302 Z"/>
    <path fill="none" stroke="rgb(0,169,51)" stroke-width="106" stroke-linejoin="round" d="M 7985,8302 C 7985,8358 7970,8413 7942,8461 7914,8509 7874,8549 7826,8577 7778,8605 7723,8620 7667,8620 7611,8620 7556,8605 7508,8577 7460,8549 7420,8509 7392,8461 7364,8413 7349,8358 7349,8302 7349,8246 7364,8191 7392,8143 7420,8095 7460,8055 7508,8027 7556,7999 7611,7984 7667,7984 7723,7984 7778,7999 7826,8027 7874,8055 7914,8095 7942,8143 7970,8191 7985,8246 7985,8302 Z"/>
   </g>
  </g>
  <g class="com.sun.star.drawing.CustomShape">
   <g id="id7">
    <rect class="BoundingBox" stroke="none" fill="none" x="8248" y="11423" width="743" height="744"/>
    <path fill="rgb(129,212,26)" stroke="none" d="M 8937,11794 C 8937,11850 8922,11905 8894,11953 8866,12001 8826,12041 8778,12069 8730,12097 8675,12112 8619,12112 8563,12112 8508,12097 8460,12069 8412,12041 8372,12001 8344,11953 8316,11905 8301,11850 8301,11794 8301,11738 8316,11683 8344,11635 8372,11587 8412,11547 8460,11519 8508,11491 8563,11476 8619,11476 8675,11476 8730,11491 8778,11519 8826,11547 8866,11587 8894,11635 8922,11683 8937,11738 8937,11794 L 8937,11794 Z"/>
    <path fill="none" stroke="rgb(0,169,51)" stroke-width="106" stroke-linejoin="round" d="M 8937,11794 C 8937,11850 8922,11905 8894,11953 8866,12001 8826,12041 8778,12069 8730,12097 8675,12112 8619,12112 8563,12112 8508,12097 8460,12069 8412,12041 8372,12001 8344,11953 8316,11905 8301,11850 8301,11794 8301,11738 8316,11683 8344,11635 8372,11587 8412,11547 8460,11519 8508,11491 8563,11476 8619,11476 8675,11476 8730,11491 8778,11519 8826,11547 8866,11587 8894,11635 8922,11683 8937,11738 8937,11794 Z"/>
   </g>
  </g>
  <g class="com.sun.star.drawing.LineShape">
   <g id="id8">
    <rect class="BoundingBox" stroke="none" fill="none" x="6290" y="8514" width="1484" height="3072"/>
    <path fill="none" stroke="rgb(0,169,51)" stroke-width="212" stroke-linejoin="round" d="M 7667,8620 L 6397,11478"/>
   </g>
  </g>
  <g class="com.sun.star.drawing.LineShape">
   <g id="id9">
    <rect class="BoundingBox" stroke="none" fill="none" x="7561" y="8515" width="1166" height="3069"/>
    <path fill="none" stroke="rgb(0,169,51)" stroke-width="212" stroke-linejoin="round" d="M 7667,8621 L 8620,11477"/>
   </g>
  </g>
  <g class="com.sun.star.drawing.LineShape">
   <g id="id10">
    <rect class="BoundingBox" stroke="none" fill="none" x="2799" y="8514" width="1484" height="3071"/>
    <path fill="none" stroke="rgb(167,7,75)" stroke-width="212" stroke-linejoin="round" d="M 2905,8620 L 4175,11477"/>
   </g>
  </g>
  <g class="com.sun.star.drawing.CustomShape">
   <g id="id11">
    <rect class="BoundingBox" stroke="none" fill="none" x="3803" y="11423" width="743" height="744"/>
    <path fill="rgb(255,191,0)" stroke="none" d="M 4492,11794 C 4492,11850 4477,11905 4449,11953 4421,12001 4381,12041 4333,12069 4285,12097 4230,12112 4174,12112 4118,12112 4063,12097 4015,12069 3967,12041 3927,12001 3899,11953 3871,11905 3856,11850 3856,11794 3856,11738 3871,11683 3899,11635 3927,11587 3967,11547 4015,11519 4063,11491 4118,11476 4174,11476 4230,11476 4285,11491 4333,11519 4381,11547 4421,11587 4449,11635 4477,11683 4492,11738 4492,11794 L 4492,11794 Z"/>
    <path fill="none" stroke="rgb(232,162,2)" stroke-width="106" stroke-linejoin="round" d="M 4492,11794 C 4492,11850 4477,11905 4449,11953 4421,12001 4381,12041 4333,12069 4285,12097 4230,12112 4174,12112 4118,12112 4063,12097 4015,12069 3967,12041 3927,12001 3899,11953 3871,11905 3856,11850 3856,11794 3856,11738 3871,11683 3899,11635 3927,11587 3967,11547 4015,11519 4063,11491 4118,11476 4174,11476 4230,11476 4285,11491 4333,11519 4381,11547 4421,11587 4449,11635 4477,11683 4492,11738 4492,11794 Z"/>
   </g>
  </g>
  <g class="com.sun.star.drawing.CustomShape">
   <g id="id12">
    <rect class="BoundingBox" stroke="none" fill="none" x="5073" y="7931" width="743" height="743"/>
    <path fill="rgb(255,191,0)" stroke="none" d="M 5762,8302 C 5762,8358 5747,8413 5719,8461 5691,8509 5651,8549 5603,8577 5555,8605 5500,8620 5444,8620 5388,8620 5333,8605 5285,8577 5237,8549 5197,8509 5169,8461 5141,8413 5126,8358 5126,8302 5126,8246 5141,8191 5169,8143 5197,8095 5237,8055 5285,8027 5333,7999 5388,7984 5444,7984 5500,7984 5555,7999 5603,8027 5651,8055 5691,8095 5719,8143 5747,8191 5762,8246 5762,8302 L 5762,8302 Z"/>
    <path fill="none" stroke="rgb(232,162,2)" stroke-width="106" stroke-linejoin="round" d="M 5762,8302 C 5762,8358 5747,8413 5719,8461 5691,8509 5651,8549 5603,8577 5555,8605 5500,8620 5444,8620 5388,8620 5333,8605 5285,8577 5237,8549 5197,8509 5169,8461 5141,8413 5126,8358 5126,8302 5126,8246 5141,8191 5169,8143 5197,8095 5237,8055 5285,8027 5333,7999 5388,7984 5444,7984 5500,7984 5555,7999 5603,8027 5651,8055 5691,8095 5719,8143 5747,8191 5762,8246 5762,8302 Z"/>
   </g>
  </g>
  <g class="com.sun.star.drawing.LineShape">
   <g id="id13">
    <rect class="BoundingBox" stroke="none" fill="none" x="4069" y="8514" width="1483" height="3071"/>
    <path fill="none" stroke="rgb(232,162,2)" stroke-width="212" stroke-linejoin="round" d="M 5445,8620 L 4175,11478"/>
   </g>
  </g>
 </g>
</svg>